<?xml version="1.0"?>
<svg xmlns="http://www.w3.org/2000/svg" xmlns:xlink="http://www.w3.org/1999/xlink" version="1.1" id="Capa_1" x="0px" y="0px" viewBox="0 0 486.198 486.198" style="enable-background:new 0 0 486.198 486.198;" xml:space="preserve" width="512px" height="512px"><g><g>
	<g>
		<path d="M102.398,201.319c3.8,24.9,23,56.5,54.5,67.6c12.9,4.6,27.1,4.6,40-0.1c31-11.2,50.9-42.7,54.7-67.5    c4.2-0.3,9.7-6.2,15.6-27.1c8.1-28.6-0.5-32.8-7.8-32.2c1.4-3.9,2.4-7.9,3.2-11.8c12.3-74.1-24.1-76.7-24.1-76.7s-6-11.6-22-20.4    c-10.7-6.3-25.5-11.2-45.1-9.5c-6.3,0.3-12.3,1.5-18,3.4l0,0c-7.2,2.4-13.8,6-19.8,10.1c-7.3,4.6-14.2,10.3-20.3,16.8    c-9.7,9.9-18.3,22.6-22,38.6c-3.1,11.9-2.4,24.3,0.2,37.7l0,0c0.7,3.9,1.7,7.8,3.2,11.8c-7.3-0.7-15.9,3.5-7.8,32.2    C92.698,195.119,98.198,201.019,102.398,201.319z" data-original="#000000" class="active-path" data-old_color="#AF4D4D" fill="#454545"/>
		<path d="M420.698,388.319l-0.1-0.1c-0.1-0.1-0.2-0.2-0.3-0.3l-21.1-25.1c-0.9-1.1-1.4-2.4-1.5-3.8l-3.1-47.2l0,0    c-0.4-4.4-4-7.8-8.5-7.8c-4.4,0-8,3.3-8.5,7.5l0,0v0.1c0,0.2,0,0.4,0,0.6l-3.4,51.9c0,0.3-0.1,0.7-0.1,1v0.1l0,0    c0,0.1,0,0.1,0,0.2s0,0.2,0,0.3c0,3.1,1.1,6.3,3.5,8.6c0.5,0.5,1,0.9,1.6,1.3l29.1,24.4l0,0c3.4,2.9,8.4,2.7,11.6-0.4    C422.998,396.519,423.298,391.719,420.698,388.319L420.698,388.319z" data-original="#000000" class="active-path" data-old_color="#AF4D4D" fill="#454545"/>
		<path d="M292.698,289.619c-30.8-12.2-52.9-27.7-52.9-27.7l-28.2,89l-5.3,16.8l-0.1-0.2l-4.6,14.2l-14.8-42.1    c36.5-50.9-7.4-50.4-9.8-50.3c-2.5-0.1-46.3-0.6-9.8,50.3l-14.8,42.1l-4.6-14.2l-0.1,0.2l-5.3-16.8l-28.2-89    c0,0-36.1,25.4-80.5,36.7c-33.1,8.4-34.7,46.6-33.4,65.5c0,0,1.9,25.7,3.8,36.9c0,0,64.6,42,172.8,42c43.9,0,80.6-6.9,108.8-15.2    c-11.9-18.6-18.8-40.7-18.8-64.3C267.098,335.719,276.698,310.019,292.698,289.619z" data-original="#000000" class="active-path" data-old_color="#AF4D4D" fill="#454545"/>
		<path d="M386.898,264.319c-54.7,0-99.3,44.5-99.3,99.3c0,54.7,44.5,99.3,99.3,99.3c54.7,0,99.3-44.5,99.3-99.3    C486.198,308.919,441.598,264.319,386.898,264.319z M386.898,437.319c-40.6,0-73.7-33-73.7-73.7s33-73.7,73.7-73.7    c40.6,0,73.7,33,73.7,73.7S427.498,437.319,386.898,437.319z" data-original="#000000" class="active-path" data-old_color="#AF4D4D" fill="#454545"/>
	</g>
</g></g> </svg>
